<svg width="18" height="18" viewBox="0 0 18 18" xmlns="http://www.w3.org/2000/svg" xmlns:xlink="http://www.w3.org/1999/xlink">
    <defs>
        <filter id="h2xod1u8sa">
            <feColorMatrix in="SourceGraphic" values="0 0 0 0 0.960784 0 0 0 0 0.945098 0 0 0 0 0.921569 0 0 0 1.000000 0"/>
        </filter>
        <path id="ncy9ruzqjb" d="M0 0h18v18H0z"/>
    </defs>
    <g transform="translate(-872 -1053)" filter="url(#h2xod1u8sa)" fill="none" fill-rule="evenodd">
        <g transform="translate(872 1053)">
            <mask id="ecz3me1oxc" fill="#fff">
                <use xlink:href="#ncy9ruzqjb"/>
            </mask>
            <path d="M2.25 16.876h-.225L9 10.862l6.975 6.014H2.25zm.563-7.7L1.405 7.883l1.407-1.124v2.417zM1.18 16.089c-.056-.113-.056-.225-.056-.337V9.119l3.994 3.598-3.938 3.372zM3.937 3.95c0-.338.225-.563.563-.563h9c.338 0 .563.225.563.563v6.182l-2.026 1.855-2.643-2.304a.592.592 0 0 0-.732 0L6.02 11.986l-2.082-1.855V3.95zM9 1.307l1.181.955H7.763L9 1.307zm7.594 6.576-1.407 1.293V6.815l1.407 1.068zm.281 7.869c0 .112 0 .224-.056.337l-3.938-3.372 3.994-3.598v6.633zm.9-8.319-2.587-2.08V3.95c0-.956-.732-1.687-1.688-1.687h-1.463L9.395.126a.592.592 0 0 0-.732 0l-2.7 2.136H4.5c-.956 0-1.688.731-1.688 1.687v1.405L.225 7.434A.511.511 0 0 0 0 7.882v7.869A2.256 2.256 0 0 0 2.25 18h13.5A2.256 2.256 0 0 0 18 15.752V7.883a.511.511 0 0 0-.225-.45z" fill="#000" mask="url(#ecz3me1oxc)"/>
        </g>
        <path d="M878.583 1061h5.834c.35 0 .583-.4.583-1s-.233-1-.583-1h-5.834c-.35 0-.583.4-.583 1s.233 1 .583 1" fill="#000"/>
    </g>
</svg>
