<svg width="18" height="19" viewBox="0 0 18 19" xmlns="http://www.w3.org/2000/svg" xmlns:xlink="http://www.w3.org/1999/xlink">
    <defs>
        <filter id="asswkli0ja">
            <feColorMatrix in="SourceGraphic" values="0 0 0 0 0.960784 0 0 0 0 0.945098 0 0 0 0 0.921569 0 0 0 1.000000 0"/>
        </filter>
        <path id="t4h38xi5fb" d="M0 .369h18v18H0z"/>
    </defs>
    <g transform="translate(-872 -1115)" filter="url(#asswkli0ja)" fill="none" fill-rule="evenodd">
        <g transform="translate(872 1115.631)">
            <mask id="qyrsg9mlqc" fill="#fff">
                <use xlink:href="#t4h38xi5fb"/>
            </mask>
            <path d="M10.778 17.032c.56-.938.967-2.29 1.212-3.826 1.043.266 2.046.67 2.983 1.198a7.818 7.818 0 0 1-4.195 2.628zm-7.89-2.635c.936-.529 1.94-.932 2.983-1.198.247 1.536.652 2.89 1.212 3.827a7.817 7.817 0 0 1-4.197-2.629h.002zm-.88-8.52c1.137.686 2.372 1.198 3.662 1.52-.056.68-.09 1.377-.09 2.075 0 .875.046 1.75.139 2.62a13.333 13.333 0 0 0-3.474 1.383 7.692 7.692 0 0 1-.237-7.599zM7.081 1.91c-.625 1.046-1.06 2.607-1.295 4.361a12.21 12.21 0 0 1-3.193-1.347A7.814 7.814 0 0 1 7.081 1.91zm8.182 3.022a12.213 12.213 0 0 1-3.192 1.348c-.235-1.755-.67-3.316-1.296-4.363 1.81.44 3.4 1.51 4.488 3.015zM8.93 1.69c.704 0 1.65 1.815 2.045 4.828-.675.115-1.36.173-2.045.175-.685-.002-1.37-.06-2.045-.175.395-3.013 1.342-4.828 2.045-4.828zm0 10.007a13.49 13.49 0 0 0-2.112.17 24.085 24.085 0 0 1-.05-4.24 13.53 13.53 0 0 0 2.162.178c.724-.001 1.447-.06 2.161-.178a23.983 23.983 0 0 1-.049 4.243 13.493 13.493 0 0 0-2.112-.173zm0 5.559c-.67 0-1.534-1.599-1.967-4.285a11.988 11.988 0 0 1 3.932 0c-.43 2.686-1.295 4.285-1.965 4.285zm6.68-3.774a13.35 13.35 0 0 0-3.474-1.392c.094-.87.142-1.743.143-2.617 0-.696-.031-1.392-.09-2.075a13.326 13.326 0 0 0 3.662-1.52 7.692 7.692 0 0 1-.236 7.598l-.005.006zm.67 1.032c2.91-3.966 2.042-9.53-1.94-12.43C10.356-.815 4.768.05 1.858 4.016c-.173.235-.334.48-.483.73-.013.016-.029.025-.04.04a.497.497 0 0 0-.033.083 8.805 8.805 0 0 0 .279 9.644v.02c0 .007.022.02.031.033 2.81 4.02 8.36 5.01 12.397 2.212a8.886 8.886 0 0 0 2.186-2.163.546.546 0 0 0 .067-.08l.016-.022z" fill="#000" mask="url(#qyrsg9mlqc)"/>
        </g>
    </g>
</svg>
