<svg width="159" height="52" viewBox="0 0 159 52" xmlns="http://www.w3.org/2000/svg" xmlns:xlink="http://www.w3.org/1999/xlink">
    <defs>
        <path id="4ckusuzwca" d="M0 52h159V0H0z"/>
    </defs>
    <g fill="none" fill-rule="evenodd">
        <path fill="#000" d="M0 34h2V22H0z"/>
        <g>
            <path d="M13.266 31.59v.092h-2.372L7.39 27.048c-.917.634-1.347 1.961-1.27 4.634H3.979c-.078-3.569.703-5.22 2.326-6.07l-2.342-3.105v-.092h2.37l3.506 4.633c.917-.634 1.346-1.976 1.27-4.633h2.141c.077 3.568-.703 5.205-2.325 6.069l2.34 3.105zM17.288 34.137h-2.08V26.57l2.08-.263v7.83zm6.518-11.722v5.297c0 3.181-1.53 4.078-3.35 4.078a5.95 5.95 0 0 1-1.852-.263l.245-1.79a4.61 4.61 0 0 0 1.3.215c1.086 0 1.591-.48 1.591-2.442v-3.258h-6.61v-1.837h8.676zM34.883 31.59v.092H32.51l-3.504-4.634c-.917.634-1.346 1.961-1.27 4.634h-2.142c-.075-3.569.705-5.22 2.326-6.07l-2.341-3.105v-.092h2.371l3.504 4.633c.919-.634 1.346-1.976 1.27-4.633h2.142c.077 3.568-.703 5.205-2.325 6.069l2.34 3.105zM44.275 22.415v.2l-3.32 9.067h-2.279v-.077l2.77-7.352h-5.141V20.87h2.142v1.545zM57.081 29.843v-3.088c0-1.776-.734-2.503-2.34-2.503h-2.25v5.591h4.59zm2.143-3.273v5.112h-8.876v-9.267h4.422c3.091 0 4.454 1.204 4.454 4.155z" fill="#000"/>
            <mask id="kzykby9izb" fill="#fff">
                <use xlink:href="#4ckusuzwca"/>
            </mask>
            <path fill="#000" mask="url(#kzykby9izb)" d="M61.364 31.681h2.142v-9.266h-2.142zM72.839 31.682h-2.065v-4.695c0-1.916-.934-2.936-2.54-2.936-.98 0-1.837.34-2.618.757l-.702-1.544a7.278 7.278 0 0 1 3.671-.974c2.448 0 4.254 1.391 4.254 4.604v4.788zM74.995 31.681h2.143v-9.266h-2.143zM87.695 26.971c0 2.935-1.744 4.88-5.05 4.88-1.148 0-2.326-.17-3.428-.648l.536-1.667c.903.353 1.867.508 2.862.508 1.851 0 2.937-1.235 2.937-3.073 0-1.715-.995-2.92-2.617-2.92-1.27 0-2.019.572-2.019 1.467 0 .865.734 1.376 1.943 1.297l-.06 1.669c-2.45.186-4.025-1.143-4.025-2.966 0-2.192 1.82-3.275 4.161-3.275 3.06 0 4.76 1.9 4.76 4.728M39.625 49.641v.819h-9.104v-.819h6.656v-4.247c0-2.085-.856-3.568-3.091-3.568-1.224 0-2.28.355-3.398.942l-.304-.71c1.239-.695 2.493-1.051 3.84-1.051 2.83 0 3.916 1.73 3.916 4.325v4.31h1.485zM41.46 41.193v5.236l-.95.185v-5.42zM52.66 49.641v.819h-9.104v-.819h6.655v-4.247c0-2.085-.856-3.568-3.09-3.568-1.225 0-2.28.355-3.397.942l-.306-.71c1.24-.695 2.494-1.051 3.84-1.051 2.83 0 3.917 1.73 3.917 4.325v4.31h1.485zM62.33 50.414v.046h-1.072l-4.62-5.606c-1.378.725-2.097 2.178-2.021 5.606h-.95c-.09-3.815.797-5.406 2.465-6.224l-2.479-2.997v-.045h1.071l4.62 5.605c1.378-.725 2.097-2.178 2.022-5.605h.948c.091 3.814-.796 5.405-2.465 6.224l2.48 2.996zM76.265 41.193v.109l-3.641 9.158h-1.009v-.046l3.411-8.403h-6.38V39.65h.949v1.544zM87.067 45.58v4.88h-.949v-4.88c0-2.425-.964-3.568-3.136-3.568h-2.755v6.471c0 1.39-.687 2.07-1.79 2.07-.474 0-1.1-.092-1.53-.246l.154-.758c.351.123.674.2 1.102.2.795 0 1.132-.493 1.132-1.513v-6.224h-1.424v-.819h5.141c2.8 0 4.055 1.344 4.055 4.387M135.9 36.897a17.071 17.071 0 0 1-2.861 6.97l.722.516a17.973 17.973 0 0 0 3.07-7.64l-.932.154zm-33.697-2.928c0 9.449 7.616 17.137 16.975 17.137 2.43 0 4.775-.507 6.972-1.506l.363.815A17.603 17.603 0 0 1 119.178 52c-9.849 0-17.86-8.089-17.86-18.031 0-9.943 8.011-18.03 17.86-18.03 9.128 0 16.666 6.95 17.723 15.883l-.873.145c-.986-8.508-8.161-15.134-16.85-15.134-9.36 0-16.975 7.687-16.975 17.136z"/>
            <path d="M124.163 33.969a17.041 17.041 0 0 1 4.201-11.255l-.595-.676a17.94 17.94 0 0 0-4.093 8.123 18.267 18.267 0 0 0-.4 3.808c0 1.964.312 3.895.925 5.74a18.014 18.014 0 0 0 3.864 6.538l.689-.565a17.129 17.129 0 0 1-4.591-11.713M152.09 19.725a17.659 17.659 0 0 0-10.951-3.787c-3.103 0-6.064.827-8.653 2.284l.607.688a16.735 16.735 0 0 1 9.54-2.013 16.802 16.802 0 0 1 8.914 3.533c4.174 3.275 6.568 8.21 6.568 13.539 0 9.449-7.616 17.137-16.976 17.137-3.081 0-6.008-.843-8.542-2.332l-.742.606A17.72 17.72 0 0 0 141.14 52c9.848 0 17.86-8.089 17.86-18.031 0-5.607-2.517-10.8-6.909-14.244" fill="#000" mask="url(#kzykby9izb)"/>
            <path d="m126.514 50.415-.365-.816a17.054 17.054 0 0 0 6.89-5.733l.722.517a17.958 17.958 0 0 1-7.247 6.032M113.742 22.411l-.428.113.428-.114c-.2-.764-.341-1.543-.434-2.332l-.883.078c.098.839.248 1.669.461 2.483a17.963 17.963 0 0 0 8.065 10.828l.102-.978a17.084 17.084 0 0 1-7.31-10.078M113.742 13.65C115.704 6.14 122.455.894 130.158.894c8.126 0 14.928 5.796 16.584 13.504l.921.049C146.011 6.217 138.791 0 130.158 0c-8.105 0-15.209 5.52-17.272 13.421l.428.115-.428-.114c-.16.614-.28 1.235-.374 1.864l.91-.08c.085-.523.186-1.044.32-1.556M146.951 20.512a17.106 17.106 0 0 1-6.091 10.824 16.778 16.778 0 0 1-9.099 3.756 16.73 16.73 0 0 1-1.603.077c-1.118 0-2.212-.123-3.279-.335l-.094.894c1.099.212 2.224.335 3.373.335a17.67 17.67 0 0 0 11.26-4.034 17.997 17.997 0 0 0 6.42-11.47l-.887-.047z" fill="#000" mask="url(#kzykby9izb)"/>
        </g>
    </g>
</svg>
