<svg width="32" height="29" viewBox="0 0 32 29" xmlns="http://www.w3.org/2000/svg">
    <g stroke="#FFF" stroke-width="2" fill="none" fill-rule="evenodd">
        <path d="m18 18 11-8M1 10l11 8M30.1 10.334c.361.25.64.605.771 1.021.084.266.129.548.129.84V25.18c0 1.557-1.28 2.82-2.857 2.82H3.857C2.279 28 1 26.737 1 25.18V12.195c0-.036 0-.072.002-.107.03-.793.457-1.52 1.117-1.973L14.936 1.32a1.817 1.817 0 0 1 2.063 0l13.1 9.013z"/>
        <path d="M1.467 26.622 14.88 17.35a1.818 1.818 0 0 1 2.063 0l13.59 9.394"/>
    </g>
</svg>
