<svg width="19" height="22" viewBox="0 0 19 22" xmlns="http://www.w3.org/2000/svg">
    <defs>
        <filter id="hawllxrfna">
            <feColorMatrix in="SourceGraphic" values="0 0 0 0 0.607843 0 0 0 0 1.000000 0 0 0 0 0.749020 0 0 0 1.000000 0"/>
        </filter>
    </defs>
    <g transform="translate(-747 -1279)" filter="url(#hawllxrfna)" fill="none" fill-rule="evenodd">
        <g fill="#000">
            <path d="m762.26 1294.08-5.618 5.438-5.618-5.438a7.53 7.53 0 0 1-.02-10.896c3.104-3.014 8.143-3.022 11.257-.019a7.53 7.53 0 0 1 .019 10.896l-.02.019m.729-11.607c-3.504-3.393-9.186-3.394-12.69-.002-.002 0-.002.001-.003.002-3.513 3.365-3.542 8.849-.066 12.248l.066.064 6.346 6.143 6.347-6.143c3.512-3.365 3.542-8.849.066-12.248a7.667 7.667 0 0 0-.066-.064"/>
            <path d="M757.142 1290.817a2.39 2.39 0 1 1 2.39-2.39 2.417 2.417 0 0 1-2.39 2.39m0-5.89a3.5 3.5 0 1 0 0 7 3.5 3.5 0 0 0 0-7"/>
        </g>
    </g>
</svg>
