<svg width="20" height="20" viewBox="0 0 20 20" xmlns="http://www.w3.org/2000/svg">
    <defs>
        <filter id="gb3z55c95a">
            <feColorMatrix in="SourceGraphic" values="0 0 0 0 0.960784 0 0 0 0 0.945098 0 0 0 0 0.921569 0 0 0 1.000000 0"/>
        </filter>
    </defs>
    <g transform="translate(-871 -1084)" filter="url(#gb3z55c95a)" fill="none" fill-rule="evenodd">
        <path d="M874.667 1085.862c-1.066.655-1.649 1.5-1.781 2.579-.275 2.244 1.537 5.556 4.847 8.859 1.46 1.456 5.194 4.843 8.352 4.843 1.307 0 2.306-.593 3.054-1.812-.142-.847-3.903-4.013-4.802-4.026-.347.129-.563.374-.814.657-.291.33-.622.704-1.189.905a.891.891 0 0 1-.299.05c-1.135 0-3.302-2.043-4.295-3.449-.559-.79-.758-1.38-.608-1.803.201-.567.575-.897.905-1.189.284-.25.53-.467.658-.815.005-.308-.694-1.547-2-3.026-1.07-1.215-1.79-1.72-2.028-1.773M886.085 1103c-3.478 0-7.423-3.562-8.957-5.093-1.679-1.675-5.535-5.96-5.093-9.57.166-1.357.92-2.448 2.241-3.24a.69.69 0 0 1 .361-.097c1.04 0 3.089 2.425 3.918 3.6 1.186 1.679 1.018 2.152.954 2.33-.2.567-.575.898-.904 1.189-.289.255-.538.475-.665.833-.018.087.098.557.85 1.482 1.184 1.454 2.743 2.625 3.245 2.625.37-.126.59-.376.846-.664.291-.33.621-.704 1.188-.905a.785.785 0 0 1 .262-.043c1.195 0 4.65 2.834 5.461 4.266.086.152.348.614.111 1.01-.906 1.511-2.19 2.277-3.818 2.277" stroke="#000" stroke-width=".5" fill="#000"/>
    </g>
</svg>
