<svg width="21" height="22" viewBox="0 0 21 22" xmlns="http://www.w3.org/2000/svg">
    <defs>
        <filter id="oh0c59xj4a">
            <feColorMatrix in="SourceGraphic" values="0 0 0 0 0.607843 0 0 0 0 1.000000 0 0 0 0 0.749020 0 0 0 1.000000 0"/>
        </filter>
    </defs>
    <g transform="translate(-775 -1279)" filter="url(#oh0c59xj4a)" fill="none" fill-rule="evenodd">
        <g fill="#000">
            <path d="M782.79 1295.156a2.55 2.55 0 0 0-1.195-.346 1.388 1.388 0 0 1-.256-.031c-.3-.088-.509-.329-.509-.588 0-.343.344-.623.767-.623h.09c.423 0 .767.28.767.623 0 .252.251.457.562.457.31 0 .56-.205.56-.457 0-.68-.549-1.25-1.304-1.453v-.354c0-.252-.25-.456-.56-.456-.311 0-.562.204-.562.456v.32c-.826.164-1.442.766-1.442 1.487 0 .648.505 1.23 1.254 1.447.198.058.386.071.535.082a1.273 1.273 0 0 1 .633.175c.244.143.39.359.39.576 0 .372-.373.675-.83.675h-.095c-.458 0-.83-.303-.83-.675 0-.252-.251-.456-.561-.456-.31 0-.562.204-.562.456 0 .752.647 1.382 1.511 1.545v.456c0 .252.251.456.562.456.31 0 .56-.204.56-.456v-.487c.792-.203 1.367-.805 1.367-1.514 0-.508-.319-1-.852-1.315"/>
            <path d="m790.05 1296.62-.243.019-.345.023-.041.001c-.052.003-.1.002-.155.005-.108.008-.22.01-.341.013-.104.002-.204.002-.307.002-.1 0-.205-.007-.307-.009.157-.46.253-.943.29-1.443h.005c.26 0 .517-.005.77-.016a.485.485 0 0 0 .479-.495c-.013-.261-.248-.46-.524-.452-.242.011-.488.015-.735.014a5.774 5.774 0 0 0-.326-1.458c.112.002.221.005.336.005 2.382 0 4.541-.461 5.788-1.236a.377.377 0 0 0 .028-.017l.017-.011c.07-.045.13-.09.192-.135-.01.216-.036.499-.098.856a.485.485 0 0 0-.011.1v.006c-.01.339-.412.642-.652.792a.482.482 0 0 0-.023.016l-.003.001c-.652.406-1.682.73-2.898.914a.478.478 0 0 0-.416.543.494.494 0 0 0 .575.392c1.373-.207 2.51-.573 3.285-1.054a.664.664 0 0 0 .045-.03c.073-.045.134-.092.198-.138-.022.472-.102.886-.103.89-.004.02-.004.04-.005.061l-.001.013c-.022.706-1.694 1.581-4.474 1.828m-7.917 3.361c-3.026 0-5.487-2.323-5.487-5.18 0-2.856 2.461-5.18 5.487-5.18 3.026 0 5.487 2.324 5.487 5.18 0 2.857-2.461 5.18-5.487 5.18m6.473-19.106c3.655 0 5.902 1.103 5.916 1.898v.02c-.022.794-2.267 1.893-5.916 1.893-3.637 0-5.88-1.092-5.914-1.886v-.035c.029-.795 2.272-1.89 5.914-1.89m-2.076 9.433c.66.08 1.358.124 2.076.124 1.45 0 2.83-.172 3.992-.495a.47.47 0 0 0 .34-.588.508.508 0 0 0-.623-.32c-1.072.298-2.354.455-3.709.455-2.171 0-4.187-.42-5.26-1.095l-.004-.002c-.286-.182-.624-.464-.65-.791v-.017c0-.016-.003-.03-.005-.046-.001-.009 0-.017-.003-.025v-.006l-.005-.027a6.926 6.926 0 0 1-.096-.842c.058.042.112.084.178.126a.521.521 0 0 0 .696-.127.458.458 0 0 0-.134-.658c-.23-.147-.613-.44-.63-.77l-.001-.012c0-.017-.002-.034-.004-.051-.001-.012 0-.024-.004-.036a6.954 6.954 0 0 1-.1-.866c1.27.912 3.695 1.393 6.021 1.393 2.328 0 4.756-.481 6.026-1.395a6.83 6.83 0 0 1-.102.87c-.002.006 0 .012-.002.018l-.003.03c-.001.014-.003.025-.003.038-.006.25-.236.532-.652.793-1.07.677-3.086 1.098-5.263 1.098-1.513 0-2.964-.202-4.084-.57a.509.509 0 0 0-.639.293.468.468 0 0 0 .31.603c1.224.4 2.791.622 4.413.622 2.401 0 4.578-.471 5.82-1.26.076-.046.14-.094.205-.141-.018.389-.076.733-.095.841-.004.012-.005.024-.007.037v.004c-.004.022-.008.045-.008.068l.001.005v.005c-.004.249-.237.531-.655.796-.078.05-.162.097-.251.144a.46.46 0 0 0-.194.645.507.507 0 0 0 .439.243c.083 0 .167-.02.244-.06a4.68 4.68 0 0 0 .342-.2c.066-.042.125-.086.184-.129-.01.217-.037.498-.098.854a.456.456 0 0 0-.012.1l.001.005c-.006.246-.226.521-.624.778l-.032.018c-1.067.677-3.082 1.097-5.26 1.097-.273 0-.532-.008-.78-.02a6.223 6.223 0 0 0-1.296-1.554m9.004-2.723c.034-.2.107-.682.107-1.189 0-.518-.076-1.01-.11-1.2a7.41 7.41 0 0 0 .11-1.202c0-.552-.086-1.075-.116-1.236-.028-1.839-3.578-2.83-6.92-2.83-3.35 0-6.911.997-6.92 2.846a7.38 7.38 0 0 0-.112 1.217c0 .519.076 1.01.11 1.2a7.41 7.41 0 0 0-.11 1.202c0 .515.075 1.002.11 1.197a7.387 7.387 0 0 0-.11 1.111c-3.317.27-5.93 2.9-5.93 6.1 0 3.379 2.911 6.127 6.49 6.127 2.505 0 4.678-1.348 5.76-3.314.242.01.481.016.713.016.116 0 .229 0 .353-.003.122-.003.243-.005.362-.013.051 0 .102-.003.164-.005.012 0 .023 0 .035-.002l.355-.024c.092-.005.18-.013.29-.022 3.159-.28 5.24-1.325 5.352-2.67.006-.033.126-.643.126-1.288 0-.511-.075-1.007-.112-1.211.09-.536.112-.95.112-1.205 0-.25-.02-.659-.111-1.202.09-.534.11-.948.11-1.202 0-.52-.076-1.011-.108-1.198"/>
        </g>
    </g>
</svg>
