<svg width="20" height="22" viewBox="0 0 20 22" xmlns="http://www.w3.org/2000/svg" xmlns:xlink="http://www.w3.org/1999/xlink">
    <defs>
        <filter id="b5e1emc65a">
            <feColorMatrix in="SourceGraphic" values="0 0 0 0 0.086275 0 0 0 0 0.356863 0 0 0 0 0.219608 0 0 0 1.000000 0"/>
        </filter>
        <path id="omwaoyw4zb" d="M0 0h20v21H0z"/>
    </defs>
    <g transform="translate(-924 -499)" filter="url(#b5e1emc65a)" fill="none" fill-rule="evenodd">
        <path d="M931.147 514.229a2.55 2.55 0 0 0-1.194-.346 1.388 1.388 0 0 1-.256-.032c-.3-.087-.51-.329-.51-.588 0-.343.345-.623.768-.623h.09c.423 0 .767.28.767.623 0 .252.251.457.561.457.31 0 .561-.205.561-.457 0-.68-.55-1.25-1.304-1.452v-.355c0-.252-.25-.456-.561-.456-.31 0-.561.204-.561.456v.32c-.826.164-1.442.766-1.442 1.487 0 .648.504 1.23 1.254 1.447.198.058.385.071.535.082.07.005.14.009.21.021.152.027.298.08.423.154.244.144.39.36.39.576 0 .372-.373.675-.83.675h-.096c-.457 0-.83-.303-.83-.675 0-.252-.25-.456-.56-.456-.311 0-.562.204-.562.456 0 .752.646 1.382 1.51 1.545v.456c0 .252.252.456.562.456.31 0 .561-.204.561-.456v-.487c.792-.203 1.367-.804 1.367-1.514 0-.508-.32-1-.853-1.314" fill="#000"/>
        <g transform="translate(924 499)">
            <mask id="01n2z2fhsc" fill="#fff">
                <use xlink:href="#omwaoyw4zb"/>
            </mask>
            <path d="M14.408 16.692c-.078.007-.155.014-.243.019l-.346.023-.04.001-.155.006c-.108.007-.22.009-.342.012-.103.002-.203.002-.307.002-.1 0-.205-.007-.306-.008.157-.46.253-.944.29-1.444h.005c.26 0 .517-.005.77-.016a.485.485 0 0 0 .478-.495c-.012-.261-.248-.46-.524-.451-.24.01-.488.014-.734.013a5.774 5.774 0 0 0-.326-1.458c.111.002.22.006.336.006 2.382 0 4.541-.462 5.788-1.237a.377.377 0 0 0 .028-.017l.016-.011c.07-.045.131-.09.193-.135-.01.216-.036.499-.098.856a.485.485 0 0 0-.011.1v.006c-.01.339-.413.642-.652.792a.482.482 0 0 0-.024.016l-.002.002c-.653.405-1.682.73-2.898.913a.478.478 0 0 0-.417.543.494.494 0 0 0 .575.392c1.373-.207 2.512-.573 3.286-1.054a.664.664 0 0 0 .044-.029c.073-.046.135-.093.199-.139-.022.472-.102.886-.103.89-.004.02-.004.041-.005.061l-.002.014c-.022.705-1.693 1.58-4.473 1.827M6.49 20.053c-3.025 0-5.487-2.323-5.487-5.18 0-2.855 2.462-5.179 5.487-5.179 3.026 0 5.488 2.324 5.488 5.18s-2.462 5.18-5.488 5.18M12.964.946c3.655 0 5.902 1.103 5.916 1.898l-.001.02c-.021.794-2.267 1.893-5.915 1.893-3.638 0-5.88-1.092-5.915-1.886v-.035c.03-.795 2.273-1.89 5.915-1.89m-2.076 9.433c.66.08 1.358.124 2.076.124 1.449 0 2.83-.171 3.992-.495a.47.47 0 0 0 .34-.588.508.508 0 0 0-.623-.32c-1.072.298-2.354.456-3.709.456-2.172 0-4.187-.42-5.26-1.096L7.7 8.46c-.286-.182-.624-.464-.65-.791v-.016c0-.017-.004-.032-.005-.047-.002-.008-.001-.016-.003-.025v-.006l-.006-.027a6.926 6.926 0 0 1-.096-.842c.058.042.113.084.178.126a.521.521 0 0 0 .697-.127.458.458 0 0 0-.134-.658c-.23-.147-.614-.44-.63-.77l-.001-.012c0-.017-.003-.034-.004-.05-.002-.013-.001-.025-.004-.037a6.954 6.954 0 0 1-.101-.866c1.27.913 3.696 1.394 6.022 1.394 2.328 0 4.756-.482 6.025-1.396a6.83 6.83 0 0 1-.102.87l-.001.018-.004.031c0 .013-.003.025-.003.038-.005.25-.236.53-.651.792-1.07.678-3.087 1.099-5.263 1.099-1.513 0-2.964-.203-4.085-.57a.509.509 0 0 0-.638.292.468.468 0 0 0 .31.603c1.223.401 2.79.622 4.413.622 2.4 0 4.578-.471 5.82-1.259.075-.047.14-.095.205-.142-.019.389-.076.733-.096.841l-.007.037v.005c-.003.022-.007.044-.007.067v.01c-.004.25-.236.532-.654.796-.078.05-.162.098-.252.144a.46.46 0 0 0-.193.645.507.507 0 0 0 .438.243c.084 0 .167-.02.244-.06a4.68 4.68 0 0 0 .342-.2c.067-.042.125-.086.184-.129-.01.217-.037.498-.097.854a.456.456 0 0 0-.012.1v.005c-.005.246-.226.521-.624.778l-.031.019c-1.067.676-3.082 1.096-5.261 1.096-.273 0-.531-.008-.78-.02a6.223 6.223 0 0 0-1.295-1.554m9.003-2.723c.035-.2.108-.682.108-1.188 0-.52-.077-1.01-.11-1.202A7.41 7.41 0 0 0 20 4.066c0-.552-.087-1.075-.116-1.236C19.854.992 16.305 0 12.963 0c-3.35 0-6.912.997-6.92 2.846a7.38 7.38 0 0 0-.112 1.217c0 .519.076 1.01.11 1.201a7.41 7.41 0 0 0-.11 1.201c0 .515.075 1.002.109 1.197a7.387 7.387 0 0 0-.11 1.112c-3.317.269-5.93 2.9-5.93 6.1C0 18.251 2.912 21 6.49 21c2.505 0 4.679-1.348 5.76-3.314.242.01.482.016.714.016.116 0 .228 0 .353-.003.121-.002.243-.005.361-.013.052 0 .103-.002.165-.005l.035-.001.354-.024c.092-.006.18-.013.29-.023 3.16-.28 5.242-1.325 5.353-2.67.006-.033.125-.643.125-1.287 0-.512-.074-1.008-.11-1.212.09-.536.11-.95.11-1.205 0-.25-.02-.659-.11-1.201.09-.535.11-.95.11-1.203 0-.52-.076-1.011-.109-1.198" fill="#000" mask="url(#01n2z2fhsc)"/>
        </g>
    </g>
</svg>
