<svg width="22" height="22" viewBox="0 0 22 22" xmlns="http://www.w3.org/2000/svg">
    <defs>
        <filter id="qw9cje25xa">
            <feColorMatrix in="SourceGraphic" values="0 0 0 0 0.607843 0 0 0 0 1.000000 0 0 0 0 0.749020 0 0 0 1.000000 0"/>
        </filter>
    </defs>
    <g transform="translate(-808 -1279)" filter="url(#qw9cje25xa)" fill="none" fill-rule="evenodd">
        <path d="M824.54 1294.13a.588.588 0 0 1-.294-.079l-5.398-3.115a.59.59 0 0 1-.294-.508v-6.796a.59.59 0 0 1 1.177 0v6.46l5.104 2.942a.588.588 0 0 1-.294 1.097m-5.399-13.026c-5.14 0-9.323 4.182-9.323 9.323 0 5.14 4.183 9.323 9.323 9.323 5.141 0 9.323-4.183 9.323-9.323 0-5.141-4.182-9.323-9.323-9.323m0 19.823c-5.79 0-10.5-4.71-10.5-10.5s4.71-10.5 10.5-10.5 10.5 4.71 10.5 10.5-4.71 10.5-10.5 10.5" fill="#000"/>
    </g>
</svg>
