<svg width="22" height="22" viewBox="0 0 22 22" xmlns="http://www.w3.org/2000/svg" xmlns:xlink="http://www.w3.org/1999/xlink">
    <defs>
        <filter id="f6galwyo0a">
            <feColorMatrix in="SourceGraphic" values="0 0 0 0 0.086275 0 0 0 0 0.356863 0 0 0 0 0.219608 0 0 0 1.000000 0"/>
        </filter>
        <path id="s7w1dqivob" d="M-.583-.592h21v21h-21z"/>
    </defs>
    <g transform="translate(-957 -499)" filter="url(#f6galwyo0a)" fill="none" fill-rule="evenodd">
        <g transform="translate(957.583 499.592)">
            <mask id="5l00ifchlc" fill="#fff">
                <use xlink:href="#s7w1dqivob"/>
            </mask>
            <path d="M15.315 13.611a.588.588 0 0 1-.294-.08l-5.399-3.114a.59.59 0 0 1-.294-.509V3.112a.59.59 0 0 1 1.177 0v6.46l5.104 2.943a.588.588 0 0 1-.294 1.096M9.917.585C4.776.585.594 4.767.594 9.908c0 5.14 4.182 9.323 9.323 9.323 5.14 0 9.323-4.182 9.323-9.323 0-5.14-4.183-9.323-9.323-9.323m0 19.823c-5.79 0-10.5-4.71-10.5-10.5s4.71-10.5 10.5-10.5 10.5 4.71 10.5 10.5-4.71 10.5-10.5 10.5" fill="#000" mask="url(#5l00ifchlc)"/>
        </g>
    </g>
</svg>
